<svg width="20" height="20" viewBox="0 0 20 20" fill="none" xmlns="http://www.w3.org/2000/svg">
<g clip-path="url(#clip0_4703_27335)">
<path d="M19.3946 0H15.8432V2.59568C15.8432 2.98218 15.5496 3.29547 15.1874 3.29547C14.8252 3.29547 14.5316 2.98218 14.5316 2.59568V0H5.4684V2.59568C5.4684 2.98218 5.1748 3.29547 4.81259 3.29547C4.45039 3.29547 4.15679 2.98218 4.15679 2.59568V0H0.605357C0.271402 0 0 0.289605 0 0.64596V4.60031C0 4.95667 0.271402 5.24627 0.605357 5.24627H19.3946C19.7286 5.24627 20 4.95667 20 4.60031V0.64596C20 0.289605 19.7286 0 19.3946 0Z" fill="#0068B6"/>
<path d="M19.3946 5.24752H0.605357C0.271402 5.24752 0 4.95899 0 4.60156V19.3542C0 19.7116 0.271402 20.0013 0.605357 20.0013H19.3946C19.7286 20.0013 20 19.7116 20 19.3553V4.60156C20 4.95792 19.7286 5.24752 19.3946 5.24752Z" fill="#36ACDE"/>
</g>
<defs>
<clipPath id="clip0_4703_27335">
<rect width="20" height="20" fill="white"/>
</clipPath>
</defs>
</svg>
